<?xml version="1.0" encoding="UTF-8"?>
<svg id="Layer_1" data-name="Layer 1" xmlns="http://www.w3.org/2000/svg" viewBox="0 0 4000 4000">
  <defs>
    <style>
      .cls-1 {
        fill: #fff;
      }
    </style>
  </defs>
  <g>
    <g>
      <path class="cls-1" d="M1927.5113,1829.4777c-66.0679,0-119.8182-53.749-119.8182-119.8168v-163.6499c0-66.0679,53.7503-119.8182,119.8182-119.8182h163.6298c66.0679,0,119.8195,53.7503,119.8195,119.8182v163.6499c0,66.0679-53.7517,119.8168-119.8195,119.8168h-163.6298ZM1927.5113,1455.7195c-49.7874,0-90.2915,40.5041-90.2915,90.2915v163.6499c0,49.7861,40.5041,90.2901,90.2915,90.2901h163.6298c49.7874,0,90.2928-40.5041,90.2928-90.2901v-163.6499c0-49.7874-40.5054-90.2915-90.2928-90.2915h-163.6298Z"/>
      <path class="cls-1" d="M2091.1423,1823.9885h-163.6314c-63.0327,0-114.3282-51.2956-114.3282-114.3282v-163.6495c0-63.0327,51.2956-114.3282,114.3282-114.3282h163.6314c63.0327,0,114.3282,51.2956,114.3282,114.3282v163.6495c0,63.0327-51.2956,114.3282-114.3282,114.3282ZM1927.5109,1450.2301c-52.817,0-95.7807,42.9637-95.7807,95.7807v163.6495c0,52.817,42.9637,95.7807,95.7807,95.7807h163.6314c52.817,0,95.7807-42.9637,95.7807-95.7807v-163.6495c0-52.817-42.9637-95.7807-95.7807-95.7807h-163.6314Z"/>
      <path class="cls-1" d="M2172.7041,1584.2662c-66.0679,0-119.8168-53.7503-119.8168-119.8182v-163.6311c0-66.0679,53.749-119.8168,119.8168-119.8168h163.6485c66.0679,0,119.8195,53.749,119.8195,119.8168v163.6311c0,66.0679-53.7517,119.8182-119.8195,119.8182h-163.6485ZM2172.7041,1210.5254c-49.7874,0-90.2901,40.5041-90.2901,90.2915v163.6311c0,49.7874,40.5027,90.2915,90.2901,90.2915h163.6485c49.7874,0,90.2928-40.5041,90.2928-90.2915v-163.6311c0-49.7874-40.5054-90.2915-90.2928-90.2915h-163.6485Z"/>
      <path class="cls-1" d="M2336.3539,1578.7769h-163.6495c-63.0327,0-114.3282-51.2956-114.3282-114.3282v-163.6314c0-63.0327,51.2956-114.3282,114.3282-114.3282h163.6495c63.0327,0,114.3282,51.2956,114.3282,114.3282v163.6314c0,63.0327-51.2956,114.3282-114.3282,114.3282ZM2172.7044,1205.0366c-52.817,0-95.7807,42.9637-95.7807,95.7807v163.6314c0,52.817,42.9637,95.7807,95.7807,95.7807h163.6495c52.817,0,95.7807-42.9637,95.7807-95.7807v-163.6314c0-52.817-42.9637-95.7807-95.7807-95.7807h-163.6495Z"/>
      <path class="cls-1" d="M1682.2999,2074.6717c-66.0679,0-119.8182-53.7503-119.8182-119.8182v-163.6311c0-66.0679,53.7503-119.8182,119.8182-119.8182h163.6485c66.0679,0,119.8182,53.7503,119.8182,119.8182v163.6311c0,66.0679-53.7503,119.8182-119.8182,119.8182h-163.6485ZM1682.2999,1700.931c-49.7874,0-90.2915,40.5041-90.2915,90.2915v163.6311c0,49.7874,40.5041,90.2915,90.2915,90.2915h163.6485c49.7874,0,90.2915-40.5041,90.2915-90.2915v-163.6311c0-49.7874-40.5041-90.2915-90.2915-90.2915h-163.6485Z"/>
      <path class="cls-1" d="M1845.9487,2069.182h-163.6495c-63.0327,0-114.3282-51.2956-114.3282-114.3282v-163.6314c0-63.0327,51.2956-114.3282,114.3282-114.3282h163.6495c63.0327,0,114.3282,51.2956,114.3282,114.3282v163.6314c0,63.0327-51.2956,114.3282-114.3282,114.3282ZM1682.2992,1695.4417c-52.817,0-95.7807,42.9637-95.7807,95.7807v163.6314c0,52.817,42.9637,95.7807,95.7807,95.7807h163.6495c52.817,0,95.7807-42.9637,95.7807-95.7807v-163.6314c0-52.817-42.9637-95.7807-95.7807-95.7807h-163.6495Z"/>
      <path class="cls-1" d="M2172.7041,2074.6717c-66.0679,0-119.8168-53.7503-119.8168-119.8182v-163.6311c0-66.0679,53.749-119.8182,119.8168-119.8182h163.6485c66.0679,0,119.8195,53.7503,119.8195,119.8182v163.6311c0,66.0679-53.7517,119.8182-119.8195,119.8182h-163.6485ZM2172.7041,1700.931c-49.7874,0-90.2901,40.5041-90.2901,90.2915v163.6311c0,49.7874,40.5027,90.2915,90.2901,90.2915h163.6485c49.7874,0,90.2928-40.5041,90.2928-90.2915v-163.6311c0-49.7874-40.5054-90.2915-90.2928-90.2915h-163.6485Z"/>
      <path class="cls-1" d="M2336.3539,2069.182h-163.6495c-63.0327,0-114.3282-51.2956-114.3282-114.3282v-163.6314c0-63.0327,51.2956-114.3282,114.3282-114.3282h163.6495c63.0327,0,114.3282,51.2956,114.3282,114.3282v163.6314c0,63.0327-51.2956,114.3282-114.3282,114.3282ZM2172.7044,1695.4417c-52.817,0-95.7807,42.9637-95.7807,95.7807v163.6314c0,52.817,42.9637,95.7807,95.7807,95.7807h163.6495c52.817,0,95.7807-42.9637,95.7807-95.7807v-163.6314c0-52.817-42.9637-95.7807-95.7807-95.7807h-163.6495Z"/>
      <path class="cls-1" d="M1682.2999,1584.2662c-66.0679,0-119.8182-53.7503-119.8182-119.8182v-163.6311c0-66.0679,53.7503-119.8168,119.8182-119.8168h163.6485c66.0679,0,119.8182,53.749,119.8182,119.8168v163.6311c0,66.0679-53.7503,119.8182-119.8182,119.8182h-163.6485ZM1682.2999,1210.5254c-49.7874,0-90.2915,40.5041-90.2915,90.2915v163.6311c0,49.7874,40.5041,90.2915,90.2915,90.2915h163.6485c49.7874,0,90.2915-40.5041,90.2915-90.2915v-163.6311c0-49.7874-40.5041-90.2915-90.2915-90.2915h-163.6485Z"/>
      <path class="cls-1" d="M1845.9487,1578.7769h-163.6495c-63.0327,0-114.3282-51.2956-114.3282-114.3282v-163.6314c0-63.0327,51.2956-114.3282,114.3282-114.3282h163.6495c63.0327,0,114.3282,51.2956,114.3282,114.3282v163.6314c0,63.0327-51.2956,114.3282-114.3282,114.3282ZM1682.2992,1205.0366c-52.817,0-95.7807,42.9637-95.7807,95.7807v163.6314c0,52.817,42.9637,95.7807,95.7807,95.7807h163.6495c52.817,0,95.7807-42.9637,95.7807-95.7807v-163.6314c0-52.817-42.9637-95.7807-95.7807-95.7807h-163.6495Z"/>
    </g>
    <path class="cls-1" d="M2009.3262,2564.4795c-44.4442,0-86.1168-17.2078-117.3415-48.4499l-223.8545-223.8558c-31.2944-31.2944-48.5303-72.9671-48.5303-117.3402s17.236-86.0458,48.5303-117.3389l152.576-152.5774-81.2976-81.2976-152.5774,152.576c-31.2944,31.2944-72.9671,48.5303-117.3402,48.5303s-86.0458-17.236-117.3402-48.5303l-223.8558-223.8572c-31.2421-31.222-48.4486-72.8947-48.4486-117.3389s17.2065-86.1182,48.4499-117.3415l223.8545-223.8558c31.2944-31.2944,72.9671-48.5303,117.3402-48.5303s86.0458,17.236,117.3402,48.5303l152.5774,152.576,81.2976-81.2962-152.576-152.5787c-31.2944-31.293-48.5303-72.9657-48.5303-117.3389s17.236-86.0458,48.5303-117.3402l223.8558-223.8572c31.222-31.2408,72.8947-48.4473,117.3402-48.4473s86.1168,17.2065,117.3429,48.4473l223.8545,223.8572c31.2957,31.2944,48.5303,72.9671,48.5303,117.3402s-17.2346,86.0458-48.5303,117.3389l-152.5787,152.5787,81.3003,81.2962,152.576-152.576c31.293-31.2944,72.9671-48.5303,117.3402-48.5303s86.0472,17.236,117.3402,48.5303l223.8572,223.8572c31.2421,31.2207,48.4473,72.8934,48.4473,117.3402s-17.2051,86.1182-48.4473,117.3402l-223.8572,223.8558c-31.293,31.2944-72.9671,48.5303-117.3402,48.5303s-86.0472-17.236-117.3402-48.5303l-152.576-152.576-81.3003,81.2976,152.5787,152.5774c31.2957,31.293,48.5303,72.9657,48.5303,117.3389s-17.2346,86.0458-48.5303,117.3402l-223.8572,223.8558c-31.2234,31.2421-72.8947,48.4499-117.3402,48.4499ZM1914.9151,1904.9174l-199.6818,199.6804c-18.6552,18.6566-28.9303,43.5999-28.9303,70.2358s10.2751,51.5806,28.9303,70.2371l223.8572,223.8572c18.6566,18.6552,43.5999,28.929,70.2358,28.929s51.5806-10.2738,70.2358-28.929l223.8572-223.8572c18.6579-18.6566,28.9317-43.5999,28.9317-70.2371s-10.2738-51.5792-28.9317-70.2358l-199.6804-199.6804,175.5064-175.5077,199.6804,199.6831c18.6552,18.6552,43.5985,28.929,70.2358,28.929s51.5806-10.2738,70.2358-28.929l223.8572-223.8572c18.6579-18.6566,28.9317-43.5999,28.9317-70.2358s-10.2738-51.5806-28.9317-70.2371l-223.8572-223.8572c-18.6552-18.6552-43.5985-28.929-70.2358-28.929s-51.5806,10.2738-70.2358,28.929l-199.6804,199.6831-175.5064-175.5064,199.6804-199.6818c18.6579-18.6566,28.9317-43.5999,28.9317-70.2358s-10.2738-51.5806-28.9317-70.2371l-223.8572-223.8572c-18.6552-18.6552-43.5985-28.929-70.2358-28.929s-51.5806,10.2738-70.2358,28.929l-223.8572,223.8572c-18.6552,18.6566-28.9303,43.5999-28.9303,70.2371s10.2751,51.5792,28.9303,70.2358l199.6818,199.6818-175.5064,175.5064-199.6804-199.6831c-18.6552-18.6552-43.5999-28.929-70.2371-28.929s-51.5806,10.2738-70.2358,28.929l-223.8572,223.8572c-18.6566,18.6566-28.9303,43.6012-28.9303,70.2371s10.2738,51.5792,28.9303,70.2358l223.8572,223.8572c18.6552,18.6552,43.5985,28.929,70.2358,28.929s51.5819-10.2738,70.2371-28.929l199.6804-199.6831,175.5064,175.5077Z"/>
    <path class="cls-1" d="M2009.3266,2558.9894c-42.9637,0-83.2647-16.6276-113.4588-46.8398l-223.8566-223.8566c-62.5617-62.5617-62.5617-164.3559,0-226.9176l156.4587-156.4587-89.0608-89.0608-156.4587,156.4587c-62.5617,62.5617-164.3559,62.5617-226.9176,0l-223.8566-223.8566c-30.2122-30.1941-46.8398-70.4952-46.8398-113.4588s16.6276-83.2647,46.8398-113.4588l223.8566-223.8566c62.5617-62.5617,164.3559-62.5617,226.9176,0l156.4587,156.4587,89.0608-89.0608-156.4587-156.4587c-62.5617-62.5617-62.5617-164.3559,0-226.9176l223.8566-223.8566c30.1941-30.2122,70.4952-46.8398,113.4588-46.8398s83.2647,16.6276,113.4588,46.8398l223.8566,223.8566c62.5617,62.5617,62.5617,164.3559,0,226.9176l-156.4587,156.4587,89.0608,89.0608,156.4587-156.4587c62.5617-62.5617,164.3559-62.5617,226.9176,0l223.8566,223.8566c30.2122,30.1941,46.8398,70.4952,46.8398,113.4588s-16.6276,83.2647-46.8398,113.4588l-223.8566,223.8566c-62.5617,62.5617-164.3559,62.5617-226.9176,0l-156.4587-156.4587-89.0608,89.0608,156.4587,156.4587c62.5617,62.5617,62.5617,164.3559,0,226.9176l-223.8566,223.8566c-30.1941,30.2122-70.4952,46.8398-113.4588,46.8398ZM1739.409,1737.1737l167.743,167.743-195.7998,195.7998c-19.6887,19.6887-30.5382,46.0247-30.5382,74.1177s10.8496,54.4291,30.5382,74.1177l223.8566,223.8566c19.6887,19.6887,46.0247,30.5382,74.1177,30.5382s54.4291-10.8496,74.1177-30.5382l223.8566-223.8566c19.6887-19.6887,30.5382-46.0247,30.5382-74.1177s-10.8496-54.4291-30.5382-74.1177l-195.7998-195.7998,167.743-167.743,195.7998,195.7998c19.6887,19.6887,46.0247,30.5382,74.1177,30.5382s54.4291-10.8496,74.1177-30.5382l223.8566-223.8566c19.6887-19.6887,30.5382-46.0247,30.5382-74.1177s-10.8496-54.4291-30.5382-74.1177l-223.8566-223.8566c-19.6887-19.6887-46.0247-30.5382-74.1177-30.5382s-54.4291,10.8496-74.1177,30.5382l-195.7998,195.7998-167.743-167.743,195.7998-195.7998c19.6887-19.6887,30.5382-46.0247,30.5382-74.1177s-10.8496-54.4291-30.5382-74.1177l-223.8566-223.8566c-19.6887-19.6887-46.0247-30.5382-74.1177-30.5382s-54.4291,10.8496-74.1177,30.5382l-223.8566,223.8566c-19.6887,19.6887-30.5382,46.0247-30.5382,74.1177s10.8496,54.4291,30.5382,74.1177l195.7998,195.7998-167.743,167.743-195.7998-195.7998c-19.6887-19.6887-46.0247-30.5382-74.1177-30.5382s-54.4291,10.8496-74.1177,30.5382l-223.8566,223.8566c-19.6887,19.6887-30.5382,46.0247-30.5382,74.1177s10.8496,54.4291,30.5382,74.1177l223.8566,223.8566c19.6887,19.6887,46.0247,30.5382,74.1177,30.5382s54.4291-10.8496,74.1177-30.5382l195.7998-195.7998Z"/>
  </g>
  <g>
    <path class="cls-1" d="M319.3871,2745.5555c76.4567,0,133.2491,19.12,170.4004,57.3367,37.1745,38.2283,55.7501,92.9941,55.7501,164.3089,0,46.555-9.0794,87.2384-27.2381,122.0388-18.1587,34.812-44.5167,61.8185-79.1203,81.0427-34.5804,19.2126-76.4335,28.8247-125.5594,28.8247-9.3805,0-23.2775-.3243-41.6215-.9612-18.3672-.6369-34.3951-.9612-48.0605-.9612-14.9393,0-29.6933.1158-44.1925.3243-14.5224.22-26.2653.7528-35.2289,1.5982v-12.8084c14.4992-.857,25.501-2.5709,32.9822-5.1303,7.4581-2.5594,12.4841-7.6897,15.0551-15.3678,2.5709-7.6897,3.8448-19.2242,3.8448-34.6035v-317.7434c0-15.7847-1.2739-27.435-3.8448-34.9046-2.5709-7.4696-7.597-12.5999-15.0551-15.3793-7.4812-2.7678-18.483-4.3776-32.9822-4.806v-12.8084c8.9636.4285,20.7065.9612,35.2289,1.5982,14.4992.6485,28.8131.7528,42.9186.3243,14.9393-.4169,31.801-.857,50.6082-1.2855,18.7841-.4169,34.1635-.6369,46.1149-.6369ZM303.3824,2757.09c-19.6411,0-32.4727,3.6248-38.4484,10.886-5.9757,7.2728-8.9636,22.0036-8.9636,44.204v320.3027c0,22.212,3.1037,36.9429,9.2878,44.204,6.1842,7.2612,19.1084,10.886,38.7726,10.886,46.5318,0,82.6177-8.4193,108.2576-25.3041,25.6168-16.8617,43.5671-41.5289,53.8046-73.99,10.2606-32.4495,15.3793-71.9517,15.3793-118.5067,0-71.7549-13.1327-125.1309-39.398-160.1514-26.2653-35.0204-72.496-52.5307-138.6921-52.5307Z"/>
    <path class="cls-1" d="M830.6115,2860.2289c11.5345,0,21.6562,2.3509,30.4344,7.0411,8.7319,4.7018,15.5646,10.7933,20.4981,18.263,4.8871,7.4696,7.3654,15.9121,7.3654,25.3041,0,10.6775-3.3121,20.0696-9.9364,28.1878-6.6242,8.1066-15.4952,12.1715-26.5896,12.1715-8.9636,0-16.8617-2.8836-23.6944-8.6509-6.8327-5.7673-10.2606-13.9896-10.2606-24.6672,0-8.1066,2.2467-15.0551,6.74-20.8223,4.4702-5.7673,9.4963-10.3417,15.0551-13.7696-3.011-4.2617-7.4812-6.4042-13.4569-6.4042-17.9503,0-33.5381,6.7285-46.7634,20.1738-13.2485,13.4569-23.6017,29.5775-31.083,48.3731-7.4581,18.7957-11.2102,36.0859-11.2102,51.8821v135.8085c0,20.9381,6.0915,34.9162,18.2746,41.9689,12.1599,7.0411,28.6973,10.5617,49.6355,10.5617v13.4569c-9.8205-.4169-23.6944-.9612-41.6447-1.5982-17.9271-.6485-36.9429-.9612-57.0009-.9612-14.5224,0-28.9521.3127-43.2428.9612-14.3139.6369-25.1073,1.1812-32.3569,1.5982v-13.4569c17.5102,0,29.9944-3.1963,37.4756-9.6005,7.4581-6.4158,11.2102-18.5872,11.2102-36.5144v-200.5106c0-19.2242-3.4279-33.4223-10.2375-42.6059-6.8559-9.1836-19.6643-13.7696-38.4484-13.7696v-13.4569c13.6654,1.2855,26.9139,1.9224,39.7223,1.9224,12.3683,0,24.2271-.7412,35.5532-2.2467,11.3029-1.4823,21.6793-3.729,31.0598-6.7169v80.0699c4.7018-12.3799,11.4187-24.8756,20.197-37.4756,8.7319-12.5884,19.3168-23.1617,31.7083-31.7083,12.3683-8.5351,26.0337-12.8084,40.9962-12.8084Z"/>
    <path class="cls-1" d="M986.9064,3126.0786c11.0944,0,20.7065,4.0649,28.8363,12.1715,8.1066,8.1182,12.1599,17.7303,12.1599,28.8247,0,11.1176-4.0533,20.7181-12.1599,28.8247-8.1297,8.1182-17.7418,12.1715-28.8363,12.1715-11.1176,0-20.7297-4.0533-28.8363-12.1715-8.1066-8.1066-12.1599-17.7071-12.1599-28.8247,0-11.0944,4.0533-20.7065,12.1599-28.8247,8.1066-8.1066,17.7187-12.1715,28.8363-12.1715Z"/>
    <path class="cls-1" d="M1345.009,2744.9186l155.0211,400.3726c6.4158,14.9624,13.1327,25.4199,20.197,31.3956,7.0411,5.9873,13.3411,9.1836,18.8999,9.6121v12.8084c-13.6885-.8454-30.0175-1.3781-49.0101-1.5982-19.0157-.2085-38.3326-.3243-57.9737-.3243-20.4981,0-39.9539.1158-58.2979.3243-18.3672.22-33.098.7528-44.2156,1.5982v-12.8084c21.7951-.857,35.669-4.586,41.6447-11.2102,5.9757-6.6242,4.7018-20.8223-3.8448-42.6059l-106.3352-290.8411,12.8084-19.2126-93.5268,241.5067c-12.8084,34.175-19.1084,59.8961-18.8999,77.1978.2085,17.2902,5.5356,28.9405,16.0047,34.9162,10.4691,5.9757,24.2503,9.3921,41.3204,10.249v12.8084c-14.9393-.8454-28.7205-1.3781-41.3204-1.5982-12.5999-.2085-26.1495-.3243-40.6719-.3243-8.5467,0-17.186.1158-25.9411.3243-8.7551.22-16.329.7528-22.7448,1.5982v-12.8084c9.4036-1.7024,18.8999-7.6897,28.512-17.9387,9.6121-10.249,19.1084-27.9677,28.512-53.1676l144.1351-370.274c8.5235.857,17.8345,1.2739,27.8635,1.2739s19.3168-.4169,27.8635-1.2739Z"/>
    <path class="cls-1" d="M1827.3739,2858.3065c18.7841,0,33.8392,2.3509,45.1653,7.0411,11.3029,4.7018,19.9654,10.6775,25.9411,17.9387,6.8327,8.1182,11.8588,18.5757,15.0551,31.3841,3.2195,12.82,4.8176,30.1102,4.8176,51.8937v172.9714c0,17.9271,2.872,30.0986,8.6393,36.5144,5.7673,6.4042,15.7036,9.6005,29.7859,9.6005v13.4569c-8.5467-.4169-21.2393-.9612-38.1009-1.5982-16.8849-.6485-33.2138-.9612-49.0101-.9612-17.5334,0-34.3951.3127-50.6082.9612-16.2363.6369-28.4194,1.1812-36.526,1.5982v-13.4569c11.9514,0,20.2896-3.1963,24.9914-9.6005,4.7018-6.4158,7.0411-18.5872,7.0411-36.5144v-203.7185c0-9.8205-1.0654-18.263-3.1963-25.3041-2.154-7.0527-5.7673-12.3799-10.886-16.0163-5.1419-3.6248-12.3915-5.443-21.7951-5.443-14.9393,0-27.7708,5.663-38.4252,16.9775-10.6775,11.3145-16.0279,25.7326-16.0279,43.2428v190.2615c0,17.9271,2.3393,30.0986,7.0643,36.5144,4.6787,6.4042,13.0169,9.6005,24.9683,9.6005v13.4569c-8.1066-.4169-19.8496-.9612-35.2289-1.5982-15.3793-.6485-30.9672-.9612-46.7634-.9612-17.5102,0-35.0204.3127-52.5307.9612-17.5102.6369-30.7587,1.1812-39.7223,1.5982v-13.4569c14.1055,0,24.0187-3.1963,29.7859-9.6005,5.7673-6.4158,8.6625-18.5872,8.6625-36.5144v-202.433c0-19.2242-2.8026-33.4223-8.3382-42.6059-5.5588-9.1836-15.5878-13.7696-30.1102-13.7696v-13.4569c13.6654,1.2855,26.9139,1.9224,39.7223,1.9224,19.2242,0,37.4756-.7412,54.7773-2.2467,17.3018-1.4823,33.1907-3.729,47.713-6.7169v51.8821c10.2606-19.6411,24.2503-33.5149,41.9689-41.6331,17.7187-8.1066,38.1241-12.1715,61.17-12.1715Z"/>
    <path class="cls-1" d="M2250.1786,2858.3065c18.3672,0,33.2138,2.3509,44.5399,7.0411,11.3029,4.7018,20.1738,10.6775,26.5664,17.9387,6.8327,8.1182,11.743,18.6915,14.754,31.7083,2.9647,13.0284,4.4702,30.226,4.4702,51.5695v172.9714c0,17.9271,2.4551,30.0986,7.3654,36.5144,4.9103,6.4042,13.5496,9.6005,25.9411,9.6005v13.4569c-8.1066-.4169-20.0812-.9612-35.8543-1.5982-15.8194-.6485-31.1988-.9612-46.138-.9612-16.2363,0-32.0326.3127-47.4119.9612-15.3562.6369-26.8907,1.1812-34.5804,1.5982v-13.4569c9.8205,0,16.7459-3.1963,20.8223-9.6005,4.0533-6.4158,6.0684-18.5872,6.0684-36.5144v-203.7185c0-9.8205-.857-18.263-2.5478-25.3041-1.714-7.0527-4.7018-12.3799-8.9636-16.0163-4.2849-3.6248-10.4691-5.443-18.5757-5.443-9.4036,0-18.2746,2.5594-26.5896,7.6897-8.3382,5.1187-14.9624,12.2757-19.8727,21.4593-4.9103,9.1836-7.3654,19.5369-7.3654,31.0714v190.2615c0,17.9271,1.9224,30.0986,5.7673,36.5144,3.8448,6.4042,10.886,9.6005,21.1466,9.6005v13.4569c-7.2728-.4169-18.1587-.9612-32.6811-1.5982-14.5224-.6485-29.2532-.9612-44.1925-.9612-17.5102,0-35.0204.3127-52.5307.9612-17.5218.6369-30.7703,1.1812-39.7338,1.5982v-13.4569c14.1055,0,24.0187-3.1963,29.7859-9.6005,5.7673-6.4158,8.674-18.5872,8.674-36.5144v-202.433c0-19.2242-2.8141-33.4223-8.3498-42.6059-5.5588-9.1836-15.5878-13.7696-30.1102-13.7696v-13.4569c13.6654,1.2855,26.9139,1.9224,39.7338,1.9224,19.2242,0,37.4756-.7412,54.7773-2.2467,17.3018-1.4823,33.1907-3.729,47.713-6.7169v51.8821c9.8205-19.2126,23.1617-32.9938,40.0465-41.3204,16.8617-8.3266,35.9701-12.4841,57.3251-12.4841ZM2442.9995,2858.3065c18.3672,0,33.2138,2.3509,44.5399,7.0411,11.3029,4.7018,20.1738,10.6775,26.5896,17.9387,6.8095,8.1182,11.7198,18.6915,14.7308,31.7083,2.9647,13.0284,4.4702,30.226,4.4702,51.5695v172.9714c0,17.9271,2.8952,30.0986,8.6625,36.5144,5.7673,6.4042,15.6805,9.6005,29.7859,9.6005v13.4569c-8.5467-.4169-21.2624-.9612-38.1241-1.5982-16.8849-.6485-33.2138-.9612-49.0101-.9612-16.2363,0-32.0326.3127-47.3888.9612-15.3793.6369-26.9139,1.1812-34.6035,1.5982v-13.4569c9.8205,0,16.7459-3.1963,20.8223-9.6005,4.0533-6.4158,6.0915-18.5872,6.0915-36.5144v-203.7185c0-9.8205-1.0886-18.263-3.2195-25.3041-2.1309-7.0527-5.6514-12.3799-10.5617-16.0163-4.9103-3.6248-12.0672-5.443-21.4709-5.443-14.0823,0-26.5664,6.1957-37.4756,18.5757-10.886,12.3915-16.7459,27.1223-17.6029,44.204l-3.8448-32.0326c11.5345-23.9144,26.6822-40.1392,45.4895-48.6858,18.7841-8.5351,39.4906-12.8084,62.1196-12.8084Z"/>
    <path class="cls-1" d="M2936.2968,2867.2701v13.4569c-8.1297,2.5594-15.9352,7.9097-23.3933,16.0163-7.4812,8.1182-14.6382,22.212-21.4477,42.2816l-85.2118,245.9885-28.1878,59.5718-146.706-327.9924c-7.2499-16.2247-14.3139-26.2653-21.1234-30.0986-6.8327-3.8448-12.5999-5.7673-17.3018-5.7673v-13.4569c15.7963,1.2855,32.0326,2.2467,48.6858,2.8836,16.6532.6369,32.4495.9612,47.4119.9612,18.7841,0,35.4374-.4169,49.9597-1.2855,14.5224-.8454,28.1878-1.7024,40.9962-2.5594v13.4569c-8.1066,0-15.7963.4285-23.069,1.2739-7.2496.8686-12.2757,3.3121-15.0551,7.3654-2.7794,4.0649-2.0151,11.2218,2.2467,21.4709l81.3669,194.7433-6.4158,4.4818,39.0737-113.388c13.2485-38.8537,15.472-67.5858,6.74-86.1614-8.7551-18.5757-22.9764-28.512-42.6175-29.7859v-13.4569c9.4036.857,20.5212,1.5055,33.3296,1.9224,12.8084.4285,23.2543.6369,31.3841.6369,8.1066,0,17.0702-.2085,26.9139-.6369,9.8205-.4169,17.2786-1.0654,22.4205-1.9224ZM2806.244,3185.0135l-25.6168,73.0287c-7.6897,21.7836-17.0933,37.1513-28.1878,46.1265-5.9989,4.6902-13.5727,8.4308-22.7448,11.2102-9.1952,2.7678-20.8223,4.1575-34.9278,4.1575-11.0944,0-22.7216-1.8182-34.9046-5.443-12.1599-3.6248-22.4205-9.5079-30.7355-17.6144-8.3382-8.1182-12.5073-19.0042-12.5073-32.6695,0-14.0939,5.1187-25.3041,15.3793-33.6307,10.2375-8.3266,24.1113-12.4957,41.6447-12.4957,15.7963,0,28.512,3.6248,38.1009,10.8976,9.6121,7.2496,14.4297,18.1472,14.4297,32.6695,0,8.9636-2.9879,17.7187-8.9636,26.2653-5.9989,8.5351-15.3793,14.9393-28.1878,19.2126,2.9647.4169,6.2768.7412,9.9132.9612,3.6364.2085,6.5084.3243,8.6625.3243,13.2253,0,24.9683-4.1691,35.2289-12.4957,10.2375-8.3266,18.344-21.2508,24.3429-38.7611l22.4205-67.8984,16.6532-3.8448Z"/>
    <path class="cls-1" d="M3125.2497,2762.8457v104.4244h69.1839v12.8084h-69.1839v262.0164c0,10.6775,1.9224,18.2514,5.7673,22.7448,3.8448,4.4818,9.6121,6.7169,17.3018,6.7169,6.3926,0,13.1327-2.1309,20.1738-6.4042,7.0409-4.2617,13.5496-11.5229,19.5253-21.7836l10.2606,6.4158c-8.1066,17.5102-19.3168,31.6041-33.6307,42.2816-14.3139,10.6659-32.9822,16.0047-56.0512,16.0047-14.1055,0-26.5896-1.8182-37.4756-5.443-10.886-3.6248-19.9654-9.0678-27.2381-16.329-9.3805-9.3921-15.472-21.0308-18.2514-34.9162-2.7794-13.8738-4.1691-31.9168-4.1691-54.1288v-217.1754h-51.2336v-12.8084h51.2336v-80.0699c20.0812,0,38.541-1.9224,55.4259-5.7673,16.8617-3.8448,32.9822-10.029,48.3616-18.5872Z"/>
    <path class="cls-1" d="M3326.4088,3203.5891c-28.6278,0-49.4502-7.5739-62.467-22.7448-13.04-15.1477-19.5484-33.4107-19.5484-54.7658,0-17.9387,4.1691-32.7738,12.5073-44.5283,8.315-11.7314,19.1084-21.2393,32.3569-28.5004,13.2253-7.2612,27.0992-13.3411,41.6215-18.263,14.5224-4.8987,28.3962-9.8205,41.6447-14.7308,13.2253-4.8987,23.926-10.4575,32.0326-16.6532,8.1066-6.1842,12.183-14.1981,12.183-24.0302v-53.1676c0-9.3921-1.4129-18.2514-4.1691-26.578-2.7794-8.3382-7.6897-15.1593-14.7308-20.5097-7.0643-5.3272-16.769-8.0024-29.1605-8.0024-7.6897,0-15.1709,1.0654-22.4205,3.2079-7.2728,2.1425-13.6654,5.5472-19.2242,10.249,13.6654,4.7018,23.8102,11.743,30.4344,21.135,6.6242,9.4036,9.9364,19.8611,9.9364,31.3956,0,15.7963-5.443,28.292-16.329,37.4756-10.9091,9.1836-23.8334,13.7696-38.7726,13.7696-16.2363,0-28.7205-5.1303-37.4756-15.3793-8.7551-10.249-13.1327-22.629-13.1327-37.1513,0-12.8084,3.2195-23.5902,9.6121-32.3569,6.4158-8.7435,15.7963-16.7459,28.1878-24.0187,12.3915-7.2612,27.3308-12.5884,44.841-16.0163,17.5102-3.4163,36.0859-5.1187,55.727-5.1187,20.0812,0,38.541,2.0266,55.4259,6.0799,16.8617,4.0649,31.2683,12.0788,43.2428,24.0302,9.3805,9.8205,15.3793,21.772,17.9271,35.8658,2.5709,14.0939,3.8448,32.0326,3.8448,53.8161v172.9598c0,10.6775.9728,18.0545,2.8952,22.1078,1.9224,4.0649,5.0029,6.0799,9.2878,6.0799,4.2617,0,8.1066-1.0539,11.5345-3.1963,3.4048-2.1309,6.6011-4.4934,9.5889-7.0527l7.0643,10.8976c-9.4036,7.6781-20.4981,13.5612-33.3296,17.6144-12.8084,4.0533-26.6822,6.0799-41.6215,6.0799-26.497,0-44.2156-5.1187-53.1792-15.3678-8.9636-10.249-13.6654-21.992-14.1057-35.2405-9.8203,15.8078-22.1886,28.1878-37.151,37.1629-14.9393,8.9636-33.3065,13.4453-55.0785,13.4453ZM3383.4097,3157.4627c6.4158,0,12.2757-1.3781,17.626-4.1575,5.3272-2.7794,10.5617-7.5739,15.7036-14.4181v-133.2491c-4.725,8.1182-10.9091,15.0551-18.5988,20.8223-7.6665,5.7673-15.472,11.963-23.3701,18.5757-7.8981,6.6358-14.5224,14.8466-19.8496,24.6672-5.3503,9.8321-8.0139,22.849-8.0139,39.0737,0,17.5218,3.5206,30.0175,10.5617,37.4756,7.0411,7.4812,15.7036,11.2102,25.9411,11.2102Z"/>
    <path class="cls-1" d="M3740.8869,2858.3065c18.7841,0,34.9973,2.1425,48.6858,6.4042,13.6654,4.2733,23.6944,8.3266,30.1102,12.1715,14.9393,9.3921,23.9028,3.4163,26.8907-17.9387h13.4569c-.857,12.3915-1.5055,27.2265-1.9224,44.5167-.4169,17.3018-.6254,40.475-.6254,69.5082h-13.4569c-1.714-15.7963-5.443-31.3841-11.2102-46.7634-5.7673-15.3678-14.2213-28.0719-25.3157-38.1125-11.0944-10.029-25.6168-15.0551-43.5671-15.0551-11.5113,0-21.2393,3.4279-29.1374,10.249-7.8981,6.8327-11.8588,16.2363-11.8588,28.1878,0,12.8084,3.8448,24.1345,11.5345,33.955,7.6897,9.8205,17.626,19.2126,29.7859,28.1878,12.183,8.9636,24.4587,18.5757,36.8502,28.8247,20.4981,15.8078,37.7767,31.6041,51.8821,47.4004,14.0823,15.8078,21.1466,36.3059,21.1466,61.5058,0,19.2126-5.7673,36.0859-17.3018,50.6082-11.5345,14.5224-26.7054,25.8368-45.4895,33.9434-18.7841,8.1182-39.7223,12.1715-62.7681,12.1715-14.1055,0-26.3811-1.3897-36.8502-4.1575-10.4691-2.7794-19.1084-6.3-25.9411-10.5733-6.3926-2.9763-12.0672-5.5472-16.9775-7.6897-4.9103-2.1309-9.7047-3.6248-14.4066-4.4818-4.2849-.4169-7.9213,1.5055-10.886,5.7673-3.011,4.2733-5.3503,9.8321-7.0643,16.6532h-13.4338c.8338-13.6654,1.4823-30.3186,1.9224-49.9597.4169-19.6411.6254-45.698.6254-78.1591h13.4569c2.5709,23.0574,7.3654,43.3471,14.4066,60.8573,7.0643,17.5218,16.5606,31.2914,28.512,41.3204,11.9514,10.0406,26.0569,15.0551,42.2932,15.0551,10.6544,0,20.2665-3.2079,28.8131-9.6121,8.5467-6.4042,12.8084-16.6532,12.8084-30.7471,0-18.7841-5.9757-34.4877-17.9271-47.0877-11.9514-12.5884-26.7054-26.358-44.1925-41.3204-13.6885-11.5229-26.3811-22.8374-38.1241-33.955-11.743-11.0944-21.3551-23.2659-28.8363-36.5144-7.4812-13.2253-11.2102-28.1878-11.2102-44.841,0-19.2126,5.443-35.5532,16.3521-48.9985,10.886-13.4569,25.0841-23.706,42.5943-30.7587,17.5102-7.0411,36.2943-10.5617,56.3755-10.5617Z"/>
  </g>
</svg>